<svg width="20" height="19" viewBox="0 0 20 19" fill="none" xmlns="http://www.w3.org/2000/svg">
<path d="M1.04004 4.44043L1.38103 17.4945H18.7989V4.44043H1.04004Z" fill="#893894"/>
<path d="M17.9936 0H2.00642C0.899432 0 0 0.896961 0 2.00642V16.3578C0 17.4648 0.901903 18.3642 2.00642 18.3642H17.9936C19.1006 18.3642 20 17.4623 20 16.3578V2.00642C20 0.899432 19.0981 0 17.9936 0ZM14.9049 1.85075C15.3719 1.85075 15.7524 2.23128 15.7524 2.6983C15.7524 3.16531 15.3719 3.54584 14.9049 3.54584C14.4379 3.54584 14.0573 3.16531 14.0573 2.6983C14.0573 2.23128 14.4379 1.85075 14.9049 1.85075ZM12.4463 1.85075C12.9133 1.85075 13.2938 2.23128 13.2938 2.6983C13.2938 3.16531 12.9133 3.54584 12.4463 3.54584C11.9792 3.54584 11.5987 3.16531 11.5987 2.6983C11.5987 2.23128 11.9792 1.85075 12.4463 1.85075ZM2.59451 1.89276H8.2555C8.70027 1.89276 9.06103 2.25352 9.06103 2.6983C9.06103 3.14307 8.70027 3.50383 8.2555 3.50383H2.59451C2.14974 3.50383 1.78898 3.14307 1.78898 2.6983C1.78898 2.25352 2.14974 1.89276 2.59451 1.89276ZM18.2061 16.6345H1.78898V5.20633H18.2061V16.6321V16.6345ZM17.3585 3.54584C16.8915 3.54584 16.511 3.16531 16.511 2.6983C16.511 2.23128 16.8915 1.85075 17.3585 1.85075C17.8256 1.85075 18.2061 2.23128 18.2061 2.6983C18.2061 3.16531 17.8256 3.54584 17.3585 3.54584Z" fill="#893894"/>
<path d="M7.34881 12.4434C7.32904 12.5076 7.31669 12.5718 7.31916 12.6386L7.46248 14.3831C7.47483 14.5486 7.57367 14.7018 7.72193 14.7834C7.87019 14.8649 8.05057 14.8698 8.2013 14.7908L9.75553 13.9828C9.83213 13.9408 9.89638 13.8815 9.94333 13.8073L7.34881 12.4458V12.4434Z" fill="white"/>
<path d="M12.6241 8.06009C12.5154 7.68204 12.2658 7.3707 11.9199 7.17796C11.574 6.99017 11.1761 6.94569 10.7981 7.05441C10.4176 7.16313 10.1038 7.4127 9.91596 7.75864L9.69851 8.15152L7.7168 11.7418L10.3286 13.1132L12.2807 9.57727L12.4981 9.18438C12.6859 8.83845 12.7304 8.44062 12.6217 8.06009H12.6241ZM11.611 8.69513L11.3936 9.08802L10.5856 8.64077L10.803 8.24789C10.9216 8.03044 11.2157 7.94643 11.4307 8.06504C11.6506 8.18611 11.7346 8.47027 11.6135 8.69513H11.611Z" fill="white"/>
</svg>
