<svg width="20" height="23" viewBox="0 0 20 23" fill="none" xmlns="http://www.w3.org/2000/svg">
<path d="M12.3547 6.97624C12.225 6.8465 12.0775 6.74035 11.9124 6.65779C11.9714 6.48677 12.0009 6.30396 12.0009 6.12114C12.0009 5.19528 11.2519 4.44633 10.3261 4.44633C10.1432 4.44633 9.96043 4.47582 9.78941 4.53479C9.70685 4.36967 9.6007 4.22224 9.47096 4.0925C9.15251 3.77405 8.73381 3.60303 8.28562 3.60303C7.83743 3.60303 7.41872 3.77994 7.10027 4.0925C6.97054 4.22224 6.86439 4.36967 6.78182 4.53479C6.6108 4.47582 6.42799 4.44633 6.24518 4.44633C5.31931 4.44633 4.57036 5.19528 4.57036 6.12114C4.57036 6.30396 4.59985 6.48677 4.65882 6.65779C4.4937 6.74035 4.34627 6.8465 4.21653 6.97624C3.56194 7.63083 3.56194 8.69233 4.21653 9.34693C4.34627 9.47667 4.4937 9.58282 4.65882 9.66538C4.59985 9.8364 4.57036 10.0192 4.57036 10.202C4.57036 11.1279 5.31931 11.8768 6.24518 11.8768C6.42799 11.8768 6.6108 11.8474 6.78182 11.7884C6.86439 11.9535 6.97054 12.1009 7.10027 12.2307C7.41872 12.5491 7.83743 12.7201 8.28562 12.7201C8.73381 12.7201 9.15251 12.5491 9.47096 12.2307C9.6007 12.1009 9.70685 11.9535 9.78941 11.7884C9.96043 11.8474 10.1432 11.8768 10.3261 11.8768C11.2519 11.8768 12.0009 11.1279 12.0009 10.202C12.0009 10.0192 11.9714 9.8364 11.9124 9.66538C12.0775 9.58282 12.225 9.47667 12.3547 9.34693C13.0093 8.69233 13.0093 7.63083 12.3547 6.97624ZM7.41872 10.2551C7.40693 10.5264 7.29488 10.7858 7.11797 10.9864C7.12976 10.7151 7.23591 10.4556 7.41872 10.2551ZM9.15251 6.06807C9.1643 5.7968 9.27635 5.53732 9.45327 5.33681C9.44147 5.60808 9.33532 5.86756 9.15251 6.06807ZM10.3791 9.02848C10.6504 9.04027 10.9099 9.15232 11.1104 9.32923C10.8391 9.31744 10.5796 9.21129 10.3791 9.02848ZM9.84249 8.59798L9.5948 8.67464C9.5948 8.67464 9.57711 8.68644 9.57121 8.69823C9.57121 8.71003 9.57121 8.72182 9.57121 8.73362L9.69506 8.96361C9.77172 9.10514 9.86607 9.23488 9.98402 9.35282L9.99581 9.36462C10.3732 9.73614 10.9099 9.90716 11.4347 9.8246C11.476 9.94844 11.4996 10.0782 11.4996 10.2079C11.4996 10.8566 10.9748 11.3815 10.3261 11.3815C10.1963 11.3815 10.0666 11.3579 9.94274 11.3166C10.0253 10.7859 9.85428 10.2492 9.47096 9.87178C9.35302 9.75384 9.22328 9.65358 9.08174 9.58282L8.85175 9.45897C8.85175 9.45897 8.82816 9.45308 8.81637 9.45897C8.80457 9.45897 8.79868 9.47077 8.79278 9.48256L8.71612 9.73025C8.66894 9.88357 8.64535 10.0487 8.64535 10.2138C8.64535 10.2256 8.64535 10.2315 8.64535 10.2374C8.65125 10.7623 8.91072 11.2576 9.33532 11.5702C9.27635 11.6881 9.19969 11.7943 9.11123 11.8886C8.65714 12.3427 7.9082 12.3427 7.45411 11.8886C7.35975 11.7943 7.28309 11.6881 7.23001 11.5702C7.66051 11.2576 7.91999 10.7505 7.91999 10.2138C7.91999 10.0487 7.8964 9.88947 7.84922 9.73025L7.77256 9.48256C7.77256 9.48256 7.76076 9.46487 7.74897 9.45897C7.73718 9.45897 7.72538 9.45897 7.71359 9.45897L7.48359 9.58282C7.34206 9.65948 7.20642 9.75973 7.09438 9.87178C6.71695 10.2492 6.54004 10.7917 6.6226 11.3166C6.49876 11.3579 6.36902 11.3815 6.23928 11.3815C5.59058 11.3815 5.06573 10.8566 5.06573 10.2079C5.06573 10.0782 5.08932 9.94844 5.1306 9.8246C5.65545 9.90716 6.1862 9.73614 6.56363 9.37052L6.57542 9.35872C6.69337 9.24078 6.79362 9.11104 6.86439 8.9695L6.98823 8.73951C6.98823 8.73951 6.99412 8.71592 6.98823 8.70413C6.98823 8.69233 6.97643 8.68644 6.96464 8.68054L6.71696 8.60388C6.56363 8.5567 6.3985 8.53311 6.23338 8.53311C6.22748 8.53311 6.21569 8.53311 6.20979 8.53311C5.68494 8.53901 5.18957 8.79849 4.87702 9.22309C4.75908 9.16411 4.65293 9.08745 4.55857 8.99899C4.33447 8.7749 4.21653 8.48593 4.21653 8.16748C4.21653 7.84903 4.34037 7.56007 4.55857 7.33597C4.65293 7.24162 4.75908 7.16495 4.87702 7.11188C5.18957 7.54827 5.69673 7.80185 6.23338 7.80185C6.3985 7.80185 6.55773 7.77826 6.71696 7.73109L6.96464 7.65442C6.96464 7.65442 6.98233 7.64263 6.98823 7.63083C6.99412 7.61904 6.98823 7.60724 6.98823 7.59545L6.86439 7.36546C6.78772 7.22392 6.68747 7.08829 6.57542 6.97624C6.56952 6.97034 6.56363 6.96445 6.56363 6.96445C6.1862 6.59292 5.64956 6.4219 5.1306 6.50446C5.08932 6.38062 5.06573 6.25088 5.06573 6.12114C5.06573 5.47245 5.59058 4.9476 6.23928 4.9476C6.36902 4.9476 6.49876 4.97118 6.6226 5.01246C6.54004 5.53732 6.71106 6.06807 7.07669 6.44549L7.08848 6.46318C7.20643 6.58113 7.33616 6.67548 7.4777 6.75215L7.70769 6.87599C7.70769 6.87599 7.73128 6.88189 7.74307 6.87599C7.75487 6.87599 7.76076 6.86419 7.76666 6.8524L7.84333 6.60472C7.8905 6.45139 7.91409 6.28627 7.91409 6.12114C7.91409 5.5845 7.65461 5.07733 7.22412 4.76478C7.28309 4.64684 7.35975 4.54069 7.44821 4.44633C7.9023 3.99224 8.65125 3.99224 9.10533 4.44633C9.19969 4.54069 9.27635 4.64684 9.32943 4.76478C8.89303 5.07733 8.63945 5.5845 8.63945 6.12114C8.63945 6.28627 8.66304 6.44549 8.71022 6.60472L8.78688 6.8524C8.78688 6.8524 8.79868 6.87009 8.81047 6.87599C8.82227 6.87599 8.83406 6.87599 8.84585 6.87599L9.07585 6.75215C9.21738 6.67548 9.35302 6.57523 9.46506 6.46318L9.47686 6.45139C9.84838 6.07397 10.0194 5.53732 9.93684 5.01246C10.0607 4.97118 10.1904 4.9476 10.3202 4.9476C10.9689 4.9476 11.4937 5.47245 11.4937 6.12114C11.4937 6.25088 11.4701 6.38062 11.4288 6.50446C10.8981 6.4219 10.3614 6.59292 9.98402 6.97624C9.86607 7.09419 9.77172 7.22392 9.68916 7.37136L9.56532 7.60135C9.56532 7.60135 9.55942 7.62494 9.56532 7.63673C9.56532 7.64853 9.57711 7.65442 9.58891 7.66032L9.83659 7.73698C9.98992 7.78416 10.155 7.80775 10.3202 7.80775C10.332 7.80775 10.3379 7.80775 10.3438 7.80775C10.8686 7.80185 11.364 7.54238 11.6765 7.11777C11.7945 7.17675 11.9006 7.25341 11.995 7.34187C12.4491 7.80185 12.4491 8.5449 11.995 8.99899C11.9006 9.09335 11.7945 9.17001 11.6765 9.22309C11.364 8.78669 10.8568 8.53311 10.3202 8.53311C10.155 8.53311 9.98992 8.5567 9.83659 8.60388L9.84249 8.59798ZM5.46085 9.33513C5.66135 9.15232 5.92083 9.04617 6.1921 9.03437C5.9916 9.21719 5.73212 9.32334 5.46085 9.33513ZM6.1921 7.29469C5.92083 7.2829 5.66135 7.17085 5.46085 6.99393C5.73212 7.00573 5.9916 7.11188 6.1921 7.29469ZM11.1104 6.99393C10.9099 7.17675 10.6504 7.2829 10.3791 7.29469C10.5796 7.11188 10.8391 7.00573 11.1104 6.99393ZM7.11207 5.33681C7.29488 5.53732 7.40103 5.7968 7.41283 6.06807C7.23001 5.86756 7.12386 5.60808 7.11207 5.33681ZM9.45327 10.9864C9.27046 10.7858 9.1643 10.5264 9.15251 10.2551C9.33532 10.4556 9.44147 10.7151 9.45327 10.9864Z" fill="#893694"/>
<path d="M8.28547 7.04736C7.67216 7.04736 7.1709 7.54863 7.1709 8.16194C7.1709 8.77525 7.67216 9.27652 8.28547 9.27652C8.89879 9.27652 9.40005 8.77525 9.40005 8.16194C9.40005 7.54863 8.89879 7.04736 8.28547 7.04736ZM8.89879 8.16194C8.89879 8.49808 8.62162 8.77525 8.28547 8.77525C7.94933 8.77525 7.67216 8.49808 7.67216 8.16194C7.67216 7.8258 7.94933 7.54863 8.28547 7.54863C8.62162 7.54863 8.89879 7.8258 8.89879 8.16194Z" fill="#893694"/>
<path d="M12.9762 13.7489L12.635 14.0397C12.3178 14.3101 12.2798 14.7865 12.5502 15.1038L18.0203 21.5221C18.2907 21.8393 18.7671 21.8773 19.0844 21.6069L19.4255 21.3162C19.7428 21.0458 19.7808 20.5694 19.5104 20.2521L14.0403 13.8338C13.7699 13.5165 13.2934 13.4785 12.9762 13.7489Z" fill="#893694"/>
<path d="M8.28561 0C3.70936 0 0 3.70936 0 8.28561C0 12.8619 3.70936 16.5712 8.28561 16.5712C12.8619 16.5712 16.5712 12.8619 16.5712 8.28561C16.5712 3.70936 12.8678 0 8.28561 0ZM8.28561 14.2949C5.46083 14.2949 2.27633 11.6175 2.27633 8.28561C2.28223 4.74727 5.12469 2.28223 8.28561 2.28223C11.4465 2.28223 14.2949 5.33699 14.2949 8.2915C14.2949 11.6175 11.6883 14.3008 8.28561 14.3008V14.2949Z" fill="#893694"/>
</svg>
